# xmcd CD database file
#
# Track frame offsets:
#	150
#	19002
#	40607
#	59350
#
# Disc length: 1039 seconds
#
# Revision: 0
# Processed by: cddbd v1.5PL3 Copyright (c) Steve Scherf et al.
# Submitted via: CDex 1.50beta8
#
DISCID=27040d04
DTITLE=かせきさぃだぁ - ポップアート
DYEAR=1900
DGENRE=Rock
TTITLE0=ポップアート
TTITLE1=急げハーリー!!
TTITLE2=モア・ポップアート
TTITLE3=モア・モア・ポップアート(instrumental)
EXTD=
EXTT0=
EXTT1=
EXTT2=
EXTT3=
PLAYORDER=
